<svg id="Layer_1" height="512" viewBox="0 0 520 520" width="512" xmlns="http://www.w3.org/2000/svg" data-name="Layer 1"><path d="m444.12 60.955c-1.862.775-34.215 14.818-50.431 9.931-16.68-5.044-26.689-28.707-26.689-28.707s-14.974 37.321-41.431 45.93c-26.534 8.612-56.249-12.879-56.249-12.879.621 15.983-4.345 36.931-15.362 50.741l.077.078a27.351 27.351 0 0 1 -.775 40.965c6.982 5.235 16.855 19.329 20.482 39.258a77.74 77.74 0 0 1 17.767-5.12c24.285-12.414 42.284-14.664 63.776-5.432 0 0-11.483-25.99.775-43.836 12.259-17.922 64.784-11.017 64.784-11.017s-13.422-14.667-12.879-33.827c.466-18.54 34.06-44.456 36.155-46.085z" fill="#9dcc6b"/><path d="m355.486 394.312c74.685-28.519 143.354-31.4 153.378-6.425s-42.389 68.329-117.073 96.849-143.352 31.393-153.379 6.425 42.39-68.33 117.074-96.849z" fill="#ffba55"/><path d="m494.783 375.641c-25.758-10.319-80.689-3.724-139.266 18.7-58.732 22.422-103.654 53.922-115.369 78.594a336 336 0 0 0 7.6-87.749c-2.777-53.359-28.655-109.124-4.422-152.766 1.489-1.48 13.762-25.6 48.18-31.266 19.862-3.57 41.043.232 56.327 10.939 34.526 24.284 49.965 71.379 80.146 105.516 20.951 23.584 50.511 46.317 66.804 58.032z" fill="#fc6"/><path d="m241.389 119.144c-20.915-5.05-38.812 13-35.456 30.878-18.8-.281-36.282 5.347-50.276 18.466a126.489 126.489 0 0 0 -31.5 6.052s15.207-22.81 4.5-47.871-54.7-30.335-54.7-30.335 20.87-11.25 23.12-32.2c2.173-19.861-15.75-49.422-17.457-52.292 2.483 2.017 22.811 18.465 44.3 18.155 22.81-.233 34.836-15.285 34.836-15.285s3.8 39.336 26.844 54.621c22.965 15.284 57.569 2.948 57.569 2.948-.043.777-8.637 24.576-1.78 46.863z" fill="#b5e08c"/><path d="m272.344 399.227a7.832 7.832 0 0 1 2.8-10.63c4.342-2.482 8.683-4.967 12.956-7.293a7.938 7.938 0 0 1 10.547 3.1 7.753 7.753 0 0 1 -3.1 10.475c-4.349 2.4-8.539 4.811-12.494 7.061l-.075.076a7.924 7.924 0 0 1 -10.634-2.789zm38.483-21.1a7.837 7.837 0 0 1 3.644-10.319c4.349-2.016 8.85-4.111 13.577-6.206a7.914 7.914 0 0 1 10.168 4.035 7.749 7.749 0 0 1 -3.962 10.24c-4.266 1.864-8.683 3.879-13.108 5.974a7.823 7.823 0 0 1 -10.319-3.729zm40.186-17.612a7.741 7.741 0 0 1 4.66-9.929c4.576-1.629 9.388-3.183 14.2-4.656a7.755 7.755 0 1 1 4.576 14.82c-4.349 1.318-8.925 2.868-13.5 4.5a7.742 7.742 0 0 1 -9.936-4.74zm41.824-13.032a7.767 7.767 0 0 1 6.046-9.156c4.97-1.008 9.933-1.94 14.82-2.637a7.763 7.763 0 0 1 2.25 15.362c-4.576.617-9.228 1.473-13.964 2.481a7.831 7.831 0 0 1 -9.152-6.055z" fill="#ffba55"/><path d="m408.907 378.782c16.321 0 29.549 12.9 29.549 28.816s-13.228 28.818-29.549 28.818-29.55-12.9-29.55-28.818 13.229-28.816 29.55-28.816z" fill="#f8834b"/><path d="m273.742 206.272c-69.97 34.985-29.4 113.493-25.991 178.912 1.246 23.906-.56 44.451-3.258 64.241-28.164 4.422-73.707-2.483-126.775-22.733-53.068-20.172-116.456-66.492-106.835-90.93 2.327-5.9 7.913-9.7 13.732-12.026 15.75-11.56 40.035-28.629 64.784-56.947 22.81-26.069 37.862-72.465 66.258-98.3 14-13.126 31.49-18.747 50.276-18.466a28.908 28.908 0 0 0 47.327 16.992c.621.465 1.164 1.008 1.784 1.552-8.4 14.189.8 30.673 17.612 32.43.388 1.784.776 3.568 1.086 5.275z" fill="#ffde76"/><path d="m207.715 411.562c-5.273-.7-10.706-1.629-15.979-2.637a7.752 7.752 0 1 1 3.023-15.206c4.887.928 9.933 1.784 15.131 2.481 3.669.523 6.591 3.163 6.591 8.766-.658 4.591-5.441 7.447-8.766 6.596zm-47.324-10.706c-5.357-1.629-10.478-3.413-15.365-5.277a7.76 7.76 0 0 1 5.508-14.51c4.811 1.785 9.7 3.493 14.509 5.046a7.643 7.643 0 0 1 5.046 9.7c-1.375 4.443-6.529 6.453-9.698 5.041zm-44.922-18.389c-4.66-2.4-9.471-4.966-14.2-7.758h-.076a7.808 7.808 0 0 1 -2.8-10.63 7.976 7.976 0 0 1 10.63-2.792c4.652 2.716 9.077 5.121 13.5 7.372a7.755 7.755 0 0 1 -7.061 13.808zm-41.278-25.526c-4.341-3.182-8.691-6.516-12.8-9.929a7.763 7.763 0 0 1 -1.007-10.941 7.963 7.963 0 0 1 10.865-1.087c4.114 3.413 8.069 6.52 12.1 9.467a7.742 7.742 0 0 1 -9.153 12.49z" fill="#ffba55"/><path d="m234.251 118.29c-15.709 0-28.629 12.337-28.629 27.931a28.374 28.374 0 0 0 28.629 27.853c15.558 0 28.629-12.257 28.629-27.853 0-15.507-12.955-27.931-28.629-27.931zm39.258 40.267a21.56 21.56 0 0 0 -21.8 21.259c0 10.576 8.14 20.633 21.8 21.18 12.026 0 21.8-9.465 21.8-21.18a21.5 21.5 0 0 0 -21.8-21.259z" fill="#f26674"/><path d="m321.108 381.906c4.661-2.171 8.927-4.11 13.117-5.895a7.771 7.771 0 0 0 -6.13-14.28c-9.9 4.431-7.111 3.108-13.662 6.21a7.739 7.739 0 0 0 6.675 13.965z"/><path d="m360.913 365.38c4.425-1.629 9-3.1 13.5-4.581a7.651 7.651 0 0 0 5.122-9.7 7.9 7.9 0 0 0 -9.7-5.118c-4.971 1.549-9.7 3.178-14.2 4.732a7.793 7.793 0 0 0 5.274 14.666z"/><path d="m288.056 381.44c-4.266 2.33-8.616 4.732-12.958 7.294a7.8 7.8 0 0 0 -2.8 10.631 7.919 7.919 0 0 0 10.631 2.792l.076-.076c4.115-2.406 8.305-4.732 12.5-7.062a7.762 7.762 0 0 0 3.107-10.476 7.957 7.957 0 0 0 -10.556-3.103z"/><path d="m401.96 353.661c5.046-1.083 9.623-1.86 13.965-2.481a7.764 7.764 0 0 0 -2.251-15.363c-4.8.7-9.774 1.549-14.813 2.636a7.728 7.728 0 0 0 -6.055 9.158 7.82 7.82 0 0 0 9.154 6.05z"/><path d="m499.1 369.322c-15.7-11.334-44.889-33.644-65.325-56.734-11.859-13.4-21.6-29.291-31.037-44.662-14.094-22.982-28.673-46.745-50.443-62.078a71.009 71.009 0 0 0 -13.018-7.028 66.027 66.027 0 0 1 12.912 4.138 7.76 7.76 0 0 0 10.168-10.264c-.1-.22-9.471-22.422.076-36.323 6.593-9.623 37.531-10.3 57.384-7.7a7.866 7.866 0 0 0 7.888-4.115 7.747 7.747 0 0 0 -1.159-8.82c-.114-.125-11.29-12.783-10.843-28.4.25-10.116 17.337-27.885 33.158-40.157a7.859 7.859 0 0 0 1.226-10.966 7.635 7.635 0 0 0 -9.258-2.2c-14.7 6.217-35.288 12.442-44.919 9.547-10.744-3.251-19.375-18.655-21.8-24.32a7.764 7.764 0 0 0 -7.138-4.717h-.083a7.756 7.756 0 0 0 -7.115 4.861c-3.789 9.446-17.762 35.3-36.63 41.445-22.4 7.278-49.056-11.6-49.321-11.794a7.765 7.765 0 0 0 -12.291 6.6c.447 11.715-2.432 27.563-9.561 39.73a36.4 36.4 0 0 0 -4.143-2.087c-.348-1.589-.649-3.254-.875-5.026-2.129-16.572 3.463-33.178 3.516-33.344a7.762 7.762 0 0 0 -9.942-9.832c-8.608 3.061-34.507 8.657-50.677-2.107-19.65-13.03-23.382-48.561-23.42-48.921a7.759 7.759 0 0 0 -13.783-4.084 39.812 39.812 0 0 1 -28.893 12.37c-14.109.356-29.347-8.35-39.069-16.242a7.62 7.62 0 0 0 -10.76.273 7.757 7.757 0 0 0 -.773 9.676l-.129.08c8.767 14.692 17.648 34.826 16.284 47.279-1.773 16.515-18.936 26.123-19.088 26.2a7.759 7.759 0 0 0 2.759 14.533c11 1.323 41.153 8.506 48.488 25.688 8.865 20.739-3.312 39.747-3.819 40.52a7.759 7.759 0 0 0 8.911 11.666c2.845-.949 5.817-1.753 8.839-2.484-9.658 12.682-17.8 27.16-25.737 41.409-8.631 15.5-16.784 30.128-26.157 40.839-20.742 23.7-40.468 39.015-62.8 55.266-8.487 3.641-14.382 9.161-17.087 16.007-2.416 6.144-1.957 13.097 1.377 20.656 12.616 28.594 66.871 64 109.911 80.412 35.568 13.556 82.417 26.54 120.259 24.21-3.389 18.977-8.585 24.419-3.991 35.868 16.536 41.189 120.316 14.364 163.354-2.069 63.9-24.4 135.94-71.1 121.52-107-2.327-5.788-7.527-11.683-16.946-15.799zm-68.429 38.408c0 11.613-9.775 21.062-21.793 21.062s-21.793-9.449-21.793-21.062a21.155 21.155 0 0 1 15.915-20.183c15.305-3.86 27.671 7.259 27.671 20.183zm-41.161-131.688c9.775 15.939 19.883 32.42 32.636 46.828 12.942 14.621 29.09 28.844 43.419 40.4-63.979-.976-165.883 37.687-212.565 81.23 5.885-45.906 2.522-75.2-5.695-115.764-5.289-26.124-9.858-48.685-2.978-77.84 10.216-43.3 68.079-54.153 99.022-32.351 19.151 13.48 32.272 34.855 46.161 57.497zm-155.31-109.6c-11.418 0-20.853-9.249-20.853-20.149 0-11.108 9.358-20.148 20.853-20.148s20.861 9.04 20.861 20.148c.003 11.227-9.749 20.149-20.861 20.149zm39.266-.034c7.737 0 14.026 6.047 14.026 13.48s-6.289 13.484-14.026 13.484a13.492 13.492 0 1 1 0-26.964zm2.986-77.862c12.237 6.16 32.28 13.283 51.481 7.039 18.739-6.1 32.03-24.054 39.418-36.811 5.326 7.71 13.4 16.417 24.066 19.641 6.455 1.951 14.582 1.539 22.777.06-7.63 8.986-13.783 19.062-14.018 28.45a54.787 54.787 0 0 0 5.645 25.009c-18.4-.773-46.04.815-56.194 15.663-8.04 11.7-7.805 25.793-5.9 36.262-13.634-3.1-26.822-1.729-42.051 4.192a28.188 28.188 0 0 0 1.338-8.163 28.612 28.612 0 0 0 -9.249-20.97c3.171-1.749 6.477-3.6 9.887-5.532 6.935-.788 15.861 1.009 24.269 5.05a7.757 7.757 0 1 0 6.728-13.98 74.038 74.038 0 0 0 -9.346-3.721c6.461-3.872 13.347-8.092 20.176-12.438a38.791 38.791 0 0 1 19.745.682 7.761 7.761 0 0 0 9.745-5.043c1.323-4.171-.283-8.469-7.659-10.357a175.952 175.952 0 0 0 13.9-10.89 7.76 7.76 0 1 0 -10.336-11.578c-2.552 2.278-5.916 4.95-9.951 7.931a7.652 7.652 0 0 0 -6.151-7.45 7.731 7.731 0 0 0 -9.078 6.172 37.332 37.332 0 0 1 -8.416 17.352c-6.519 4.154-13.094 8.189-19.3 11.917a63.185 63.185 0 0 0 1.965-11.606 7.76 7.76 0 0 0 -7.29-8.2 7.6 7.6 0 0 0 -8.2 7.3 55.281 55.281 0 0 1 -8.733 25.515c-7.32 4.153-14.139 7.893-20.1 11.063a17.734 17.734 0 0 0 -5.365-.043 35.415 35.415 0 0 0 .326-4.767 34.911 34.911 0 0 0 -6.751-20.557c7.425-11.476 11.238-25.222 12.625-37.192zm-184.947 3.694c6.016-6.358 11.972-15.435 13.23-27.162 1.117-10.237-2.139-22.2-6.4-32.861 7.492 3.2 16.034 5.641 24.914 5.64h.7a55.894 55.894 0 0 0 29.476-8.589c3.372 14.109 11.056 35.5 27.832 46.627 16.625 11.064 37.8 9.73 51.269 7.195a91.516 91.516 0 0 0 -.977 27.143c.028.224.077.428.108.649a36.266 36.266 0 0 0 -28.772 17.588c-2.1-1.627-4.45-3.514-6.975-5.594a58.53 58.53 0 0 1 -2.51-30.155 7.762 7.762 0 0 0 -15.23-3.008 71.45 71.45 0 0 0 -1 16.909c-6.692-6.068-13.686-12.689-20.461-19.435-2.72-4.942-3.658-10.97-3.106-20.593a7.757 7.757 0 1 0 -15.489-.894c-.032.561-.049 1.142-.075 1.712-4.507-5.139-8.6-10.128-11.905-14.726a7.759 7.759 0 1 0 -12.6 9.055c3.829 5.326 8.568 11.084 13.8 16.992-1.781-.015-3.5.008-5.072.091a7.759 7.759 0 1 0 .819 15.5c9.113-.476 17.106.957 22.808 3.98 6.306 6.278 12.768 12.4 19.046 18.134a103.81 103.81 0 0 0 -13.492 1.615 7.758 7.758 0 1 0 2.849 15.253c12.26-2.285 23.3-1.847 31.276 1.127 3.976 3.287 7.511 6.079 10.536 8.346-19.166 1.791-32.5 8.731-43.666 18.338a138.487 138.487 0 0 0 -14.854 2.014c3.023-10.234 4.562-24.4-1.841-39.4-7.743-18.121-29-27.191-44.238-31.491zm28.93 327.372c-44.449-16.944-91.755-50.671-101.242-72.175-1.606-3.626-1.985-6.555-1.137-8.7 2.165-5.508 9.13-7.232 11.041-8.623 24.014-17.464 44.111-33.004 66.09-58.114 10.449-11.946 18.989-27.279 28.029-43.51 22.244-39.919 39.105-68.139 76.631-70.482 6.072 17.194 25.432 27.749 44.085 22.661 0 .079.027.151.031.231a29.2 29.2 0 0 0 15.215 24.411 68.757 68.757 0 0 0 -29.961 42.024c-7.653 32.462-2.539 57.733 2.879 84.481 8.261 40.815 11.109 67.1 5.462 110.8-28.795 2.641-71.935-5.773-117.123-23.004zm268.565 58.016c-79.382 30.3-137.023 26.707-143.426 10.783-1.175-2.936-.788-6.68 1.152-11.124 15.247-34.864 90.35-68.781 126.931-81.1a35.488 35.488 0 0 0 -2.085 11.54c0 20.171 16.738 36.58 37.311 36.58s37.311-16.409 37.311-36.58a36.062 36.062 0 0 0 -11.786-26.527c16.552-2.44 60.974-5.891 67.24 9.712 7.119 17.793-39.218 58.669-112.648 86.716z"/><path d="m83.056 344.353c-3.956-2.872-7.835-5.9-11.874-9.234a7.889 7.889 0 0 0 -10.866 1.081 7.732 7.732 0 0 0 .932 10.862.08.08 0 0 1 .083.08c4.107 3.338 8.381 6.751 12.8 9.93a7.8 7.8 0 0 0 10.791-1.629c2.348-3.249 2.257-6.967-1.866-11.09z"/><path d="m122.39 368.794c-4.728-2.482-9.305-4.967-13.419-7.373a7.959 7.959 0 0 0 -10.632 2.8 7.83 7.83 0 0 0 2.8 10.627c4.577 2.641 9.313 5.2 14.276 7.759a7.736 7.736 0 1 0 6.979-13.809z"/><path d="m164.991 386.252c-4.888-1.553-9.775-3.258-14.511-5.043a7.944 7.944 0 0 0 -10.01 4.5 7.731 7.731 0 0 0 4.5 10.006c5.122 1.94 10.32 3.724 15.291 5.278a7.741 7.741 0 1 0 4.729-14.742z"/><path d="m209.766 396.338c-5.047-.7-10.086-1.55-15.057-2.562a7.906 7.906 0 0 0 -9.153 6.131 7.687 7.687 0 0 0 6.13 9.081c3.477.693 14.923 2.792 16.988 2.792a7.848 7.848 0 0 0 7.76-6.672c0-5.45-2.915-8.243-6.668-8.77z"/></svg>