<svg id="_x33_0" enable-background="new 0 0 64 64" height="512" viewBox="0 0 64 64" width="512" xmlns="http://www.w3.org/2000/svg"><g><g><path d="m15 33c3.33 0 6.65.27 9.93.82l3.63.61c2.26.37 4.58.19 6.75-.53.18.35.45.67.78.92 1.91 1.43 4.14 2.39 6.5 2.78l2.5.4c-.06.13-.09.27-.09.41v2.59c0 .55.45 1 1 1h7c0 1.3.41 2.57 1.16 3.63l3.14 4.39c.46.64.7 1.4.7 2.18 0 .53-.11 1.05-.32 1.53l-2.2 4.95h-.01l-4.29-2.57-.01-.01c.54-.79.83-1.73.83-2.71v-.83c0-.92-.62-1.72-1.51-1.94l-6.49-1.62c-1-.25-1.91-.72-2.68-1.36l-.01.01c-1.8.41-3.5 1.14-5.04 2.17-2.13 1.42-4.64 2.18-7.2 2.18-1.66 0-3.3-.32-4.83-.93-.61 1.03-1.54 1.85-2.7 2.31l-7.91 3.17c-1.61.64-3.08 1.58-4.33 2.75l-3.97-3.97 5.6-2.79c.66-.33 1.07-1 1.07-1.74 0-.51-.2-1-.57-1.37 0 0-.07-.07-.19-.19-1.43-1.43-2.24-3.38-2.24-5.43 0-2.12.73-4.17 2.07-5.81l-3.34-.47c-1.07-.15-2-.68-2.67-1.45-.66-.76-1.06-1.76-1.06-2.84 0-1.37.77-2.63 2-3.24h.02c-.01-.11-.02-.21-.02-.32v-.03c0-1.03.51-1.99 1.37-2.56l1.63-1.09c.64 2.56 2.27 4.76 4.54 6.12z" fill="#cf9e76"/><path d="m50 27.94v4.06c-1.39 0-2.63.78-3.24 1.96l-2.37-.39c-2.2-.37-4.24-1.42-5.82-3-.17-.17-.36-.3-.57-.39v-.01-2.05c0-2.74.34-5.46 1-8.12h-1.5c-1.57 0-3.06-.74-4-2l-1.5-2 .23-.23c1.05-1.05 2.47-1.68 4.11-1.76.05-.01.11-.01.16-.01 1.6 0 3.14.64 4.27 1.77l.23.23.54-.36c.37-.24.75-.46 3.22-1.39.72-.17 1.46-.25 2.2-.25.5 0 1 .04 1.48.12.78.11 1.53.32 2.26.62.57.24 1.12.53 1.63.87.55.36 1.06.78 1.53 1.25 1.13 1.13 2.58 1.85 4.14 2.06v.01c0 1.8 1.23 3.38 2.98 3.82l.96.24c-.14.68-.63 1.24-1.31 1.47l-3.21 1.07c-.94.31-1.84.75-2.66 1.3-1.15.76-2.49 1.17-3.87 1.17-.3 0-.6-.02-.89-.06z" fill="#cf9e76"/><path d="m48.68 13.65c.21-.43.32-.9.32-1.38 0-.81-.32-1.59-.9-2.17-1.37-1.37-2.35-3.1-2.82-4.98l-.08-.31c-.04-.18-.07-.36-.07-.55 0-.35.08-.7.24-1.01.39-.77 1.17-1.25 2.03-1.25h.04c.92 0 1.72.62 1.94 1.51l.21.87c.26 1.01 1.01 1.82 2 2.15.89.3 1.87.16 2.65-.36l1.37-.91c.26-.17.55-.26.85-.26.85 0 1.54.69 1.54 1.54v.59c0 .54-.28 1.04-.75 1.32l-2.03 1.22c-1.38.82-2.22 2.31-2.22 3.92 0 .73-.24 1.44-.67 2.02-.51-.34-1.06-.63-1.63-.87-.73-.3-1.48-.51-2.26-.62v-.01z" fill="#b27946"/><path d="m44.76 14.25c-2.47.93-2.85 1.15-3.22 1.39l-.54.36-.23-.23c-1.13-1.13-2.67-1.77-4.27-1.77-.05 0-.11 0-.16.01v-.01l-1.44-.86c-1.24-.75-2.67-1.14-4.12-1.14h-4.79c-1.22 0-2.34-.69-2.88-1.78-.73-1.46-1.82-2.69-3.17-3.59-.59-.4-.94-1.05-.94-1.76 0-.56.22-1.09.62-1.49l.82-.82c.36-.36.85-.56 1.35-.56.74 0 1.41.42 1.73 1.09l1.85 3.86c.39.65 1.1 1.05 1.86 1.05 1.23 0 2.17-1 2.17-2.16 0-.17-.03-.35-.07-.53l-.13-.5c-.13-.52-.07-1.08.17-1.56l.02-.03c.37-.75 1.13-1.22 1.96-1.22h.04c.96 0 1.79.63 2.05 1.54.27.93.61 2.13.91 3.17.4 1.41 1.54 2.49 2.97 2.81l2.66.59c2.2.49 3.99 2.06 4.78 4.14z" fill="#b27946"/><path d="m55.48 58.68-.94 2.11c-.33.74-1.06 1.21-1.86 1.21-.44 0-.88-.13-1.25-.38l-1.6-1.07c-.52-.34-.83-.93-.83-1.55s.31-1.21.83-1.55c.54-.36 1-.82 1.34-1.35l.01.01 4.29 2.57z" fill="#838f9b"/><path d="m5.33 55.33 3.97 3.97c-.6.55-1.15 1.16-1.64 1.82-.42.56-1.07.88-1.75.88-.58 0-1.14-.23-1.55-.64l-1.79-1.79c-.37-.37-.57-.86-.57-1.37 0-.74.41-1.41 1.07-1.74z" fill="#838f9b"/><path d="m46.2 36.02c-.13.64-.45 1.23-.91 1.69-.08.08-.15.18-.19.29h-.01l-2.5-.4c-2.36-.39-4.59-1.35-6.5-2.78-.33-.25-.6-.57-.78-.92-.2-.38-.31-.81-.31-1.26 0-.42.1-.84.29-1.21l.17-.36c.33-.66 1-1.07 1.74-1.07.05 0 .09 0 .8.18.21.09.4.22.57.39 1.58 1.58 3.62 2.63 5.82 3l2.37.39c-.16.3-.28.63-.35.98z" fill="#ef7385"/><path d="m61.94 22.99-.96-.24c-1.75-.44-2.98-2.02-2.98-3.82v-.01c.34.06.68.08 1.03.08h.97c1.1 0 2 .9 2 2v1.56c0 .15-.02.29-.05.43z" fill="#ef7385"/><g fill="#fcd770"><path d="m54.9 38h-9.8c.04-.11.11-.21.19-.29.46-.46.78-1.05.91-1.69l.21-1.08c.07-.35.19-.68.35-.98.61-1.18 1.85-1.96 3.24-1.96.87 0 1.68.31 2.32.83s1.1 1.25 1.27 2.11l.21 1.08c.13.64.45 1.23.91 1.69.08.08.15.18.19.29z"/><path d="m55 38.41v2.59c0 .55-.45 1-1 1h-1-7c-.55 0-1-.45-1-1v-2.59c0-.14.03-.28.09-.41h.01 9.8c.07.13.1.27.1.41z"/></g></g><g><circle cx="48" cy="20" r="1"/><path d="m60 18h-.973c-1.685 0-3.269-.656-4.46-1.848-.298-.298-.614-.57-.939-.828.234-.549.372-1.139.372-1.738 0-1.246.664-2.418 1.732-3.059l2.037-1.223c.759-.454 1.231-1.287 1.231-2.173v-.596c0-1.397-1.137-2.535-2.535-2.535-.502 0-.988.147-1.406.426l-1.374.916c-.528.353-1.179.439-1.782.239-.667-.224-1.168-.764-1.339-1.445l-.215-.864c-.335-1.337-1.532-2.272-2.95-2.272-1.244 0-2.362.691-2.919 1.804-.348.696-.436 1.495-.247 2.251l.077.308c.515 2.06 1.581 3.942 3.083 5.444.391.391.607.913.607 1.467 0 .264-.063.523-.162.769-.292-.024-.585-.043-.882-.043-.541 0-1.077.044-1.605.124-1.034-2.024-2.907-3.494-5.159-3.995l-2.651-.589c-1.075-.238-1.931-1.044-2.233-2.102l-.905-3.172c-.381-1.333-1.619-2.266-3.049-2.266-1.219 0-2.313.678-2.874 1.804-.348.696-.436 1.495-.247 2.251l.124.496c.088.352.01.716-.212 1.001-.223.285-.558.448-.919.448-.407 0-.79-.217-.955-.483l-1.848-3.86c-.482-1.007-1.514-1.657-2.63-1.657-.778 0-1.509.303-2.062.854l-.821.822c-.587.588-.91 1.368-.91 2.197 0 1.041.517 2.007 1.383 2.584 1.205.804 2.184 1.913 2.831 3.207.721 1.44 2.169 2.336 3.78 2.336h4.79c.985 0 1.955.214 2.85.613-.775.346-1.491.829-2.109 1.447l-.846.846 2.021 2.694c1.128 1.503 2.922 2.4 4.8 2.4h.244c-.494 2.34-.744 4.73-.744 7.123v.891c-1.039.069-1.959.668-2.43 1.61l-.178.355c-.256.514-.392 1.088-.392 1.663 0 .188.037.37.065.553-1.743.44-3.568.54-5.341.245l-3.628-.604c-3.238-.539-6.54-.82-9.818-.835l-1.228-.737c-2.051-1.231-3.5-3.187-4.08-5.506l-.344-1.377-2.809 1.873c-1.066.709-1.722 1.87-1.801 3.168-1.256.854-2.016 2.265-2.016 3.814 0 2.64 1.971 4.912 4.587 5.286l1.753.245c-.869 1.522-1.34 3.245-1.34 5.044 0 2.323.901 4.504 2.538 6.143l.188.187c.174.173.274.415.274.662 0 .357-.199.679-.518.838l-7.858 3.93c-1.002.5-1.624 1.507-1.624 2.626 0 .773.313 1.53.86 2.077l1.792 1.792c.602.603 1.403.934 2.254.934.998 0 1.951-.477 2.55-1.275 1.422-1.897 3.339-3.366 5.542-4.247l7.917-3.166c1.101-.441 2.015-1.163 2.707-2.052 1.435.482 2.923.74 4.444.74 2.771 0 5.455-.812 7.76-2.35 1.316-.877 2.758-1.511 4.282-1.912.787.56 1.676.989 2.648 1.232l6.485 1.621c.447.112.759.511.759.971v.833c0 1.296-.644 2.499-1.723 3.219-.799.532-1.277 1.425-1.277 2.386s.478 1.854 1.277 2.387l1.602 1.068c.535.357 1.157.545 1.801.545 1.197 0 2.284-.707 2.77-1.801l3.141-7.064c.272-.612.41-1.263.41-1.932 0-.997-.306-1.952-.886-2.764l-3.138-4.393c-.443-.621-.731-1.321-.872-2.057 1.053-.055 1.895-.922 1.895-1.989v-2.586c0-.526-.213-1.042-.586-1.414-.323-.322-.541-.729-.63-1.177l-.215-1.078c-.367-1.833-1.8-3.23-3.569-3.623v-2.13c1.54-.021 3.029-.476 4.312-1.331.75-.501 1.565-.899 2.421-1.186l3.215-1.071c1.228-.409 2.052-1.552 2.052-2.845v-1.559c0-1.654-1.346-3-3-3zm1 3v.699c-.834-.281-1.479-.907-1.791-1.699h.791c.551 0 1 .448 1 1zm-12.194-11.607c-1.245-1.246-2.129-2.808-2.556-4.515l-.077-.308c-.073-.293-.039-.603.096-.872.215-.43.648-.698 1.169-.698.459 0 .859.312.97.757l.215.864c.338 1.349 1.327 2.416 2.646 2.857 1.192.395 2.477.224 3.524-.473l1.374-.916c.334-.222.833.046.833.446v.596c0 .188-.1.363-.26.459l-2.038 1.223c-1.667 1-2.703 2.829-2.703 4.773 0 .211-.035.419-.089.622-.664-.345-1.364-.615-2.087-.814.105-.366.176-.74.176-1.12.001-1.088-.423-2.113-1.193-2.881zm-22.812 1.607c-.849 0-1.612-.472-1.991-1.23-.803-1.604-2.016-2.979-3.51-3.977-.309-.206-.493-.55-.493-.92 0-.296.115-.574.325-.783l.82-.821c.423-.421 1.217-.284 1.474.251l1.893 3.943c.569.948 1.609 1.537 2.714 1.537.981 0 1.891-.443 2.495-1.218.604-.773.814-1.764.576-2.716l-.124-.496c-.073-.293-.039-.603.115-.91.203-.407.611-.66 1.103-.66.512 0 .95.327 1.089.815l.905 3.172c.503 1.764 1.93 3.107 3.722 3.506l2.65.589c1.517.337 2.796 1.273 3.591 2.567-.777.277-1.532.621-2.235 1.075-1.25-1.089-2.825-1.691-4.494-1.718l-1.205-.723c-1.399-.839-3-1.282-4.63-1.282h-4.79zm10.187 20.874.178-.355c.271-.546 1.071-.674 1.501-.244 1.739 1.739 3.941 2.872 6.368 3.277l1.201.2-.214 1.071c-.082.413-.285.784-.568 1.093l-1.892-.304c-2.193-.366-4.292-1.264-6.069-2.597-.429-.323-.686-.836-.686-1.373 0-.266.062-.531.181-.768zm9.819 7.126h8v2h-8zm-40.934 21.652-1.792-1.792c-.174-.174-.274-.416-.274-.663 0-.357.199-.679.518-.838l1.618-.809 2.753 2.754c-.363.389-.712.793-1.033 1.221-.411.546-1.305.61-1.79.127zm46.923.139-1.603-1.068c-.241-.161-.386-.432-.386-.723s.145-.562.387-.723c.377-.251.715-.546 1.018-.868l2.795 1.677-.578 1.3c-.265.6-1.09.767-1.633.405zm4.498-10.189c.336.469.513 1.024.513 1.601 0 .388-.08.765-.237 1.119l-1.744 3.923-2.515-1.509c.317-.729.496-1.521.496-2.341v-.833c0-1.379-.935-2.576-2.272-2.91l-6.485-1.621c-2.108-.527-3.745-2.164-4.272-4.272l-1.94.484c.27 1.078.758 2.062 1.413 2.908-1.311.452-2.561 1.061-3.725 1.836-2.958 1.972-6.718 2.497-10.109 1.483.245-.691.39-1.426.39-2.193 0-1.735-.676-3.367-1.903-4.595l-1.39-1.39-1.414 1.414 1.39 1.39c.85.85 1.317 1.979 1.317 3.181 0 1.851-1.11 3.49-2.827 4.177l-7.917 3.166c-1.421.569-2.733 1.356-3.906 2.316l-2.328-2.328 4.355-2.178c1.001-.501 1.623-1.508 1.623-2.627 0-.773-.313-1.53-.86-2.077l-.189-.188c-1.258-1.26-1.951-2.938-1.951-4.727 0-2.19.854-4.251 2.403-5.8l1.304-1.304-1.414-1.414-1.304 1.304c-.109.109-.205.227-.308.34l-2.813-.394c-1.635-.234-2.868-1.655-2.868-3.307 0-.577.202-1.107.531-1.549.187.34.406.664.688.946l1.074 1.074 1.414-1.414-1.075-1.074c-.407-.408-.632-.953-.632-1.573 0-.696.346-1.343.926-1.729l.524-.35c.875 2.255 2.463 4.146 4.571 5.41l1.702 1.023h.277c3.26 0 6.547.272 9.768.809l3.628.604c.814.136 1.639.203 2.463.203 1.364 0 2.725-.196 4.04-.561.175.205.368.396.587.56 2.033 1.524 4.433 2.552 6.946 2.971l1.568.252v2.162c0 1.103.897 2 2 2h6.077c.159 1.153.585 2.249 1.272 3.209zm-3.879-15.464.215 1.078c.054.272.143.531.246.784h-6.139c.104-.253.192-.513.246-.784l.215-1.078c.249-1.239 1.346-2.138 2.609-2.138s2.36.899 2.608 2.138zm4.494-10.56c-1.026.342-2.001.819-2.899 1.419-.985.656-2.131 1.003-3.314 1.003-1.596 0-3.096-.621-4.224-1.75l-.958-.957-1.414 1.414.957.957c1.049 1.05 2.343 1.762 3.75 2.103v2.355c-1.091.242-2.045.87-2.708 1.746l-1.735-.289c-2.014-.336-3.84-1.276-5.283-2.719-.085-.085-.181-.153-.274-.226v-1.512c0-2.654.326-5.306.97-7.881l.311-1.241h-2.781c-1.252 0-2.448-.599-3.2-1.6l-.962-1.284c.892-.723 1.997-1.116 3.162-1.116 1.345 0 2.609.523 3.561 1.475l.812.812 1.223-.815c1.443-.963 3.124-1.472 4.86-1.472 2.341 0 4.542.911 6.196 2.566 1.096 1.096 2.447 1.84 3.918 2.193.294 1.729 1.495 3.166 3.153 3.779z"/><path d="m20 35c-2.243 0-4 1.317-4 3s1.757 3 4 3 4-1.317 4-3-1.757-3-4-3zm0 4c-1.221 0-2-.592-2-1s.779-1 2-1 2 .592 2 1-.779 1-2 1z"/><path d="m26 37v2c1.221 0 2 .592 2 1s-.779 1-2 1v2c2.243 0 4-1.317 4-3s-1.757-3-4-3z"/><path d="m14 46c0 1.683 1.757 3 4 3v-2c-1.221 0-2-.592-2-1s.779-1 2-1v-2c-2.243 0-4 1.317-4 3z"/></g></g></svg>